<svg width="40" height="60" viewBox="0 0 40 60" fill="none" xmlns="http://www.w3.org/2000/svg">
<path d="M5.02924 42.5391V54.9609H2.5731C0.8577 54.9609 0 55.8203 0 57.5391C0 58.2422 0.233918 58.8281 0.701754 59.2969C1.16959 59.7656 1.79337 60 2.5731 60H37.4269C38.2066 60 38.8304 59.7656 39.2982 59.2969C39.7661 58.8281 40 58.2422 40 57.5391C40 55.8203 39.1423 54.9609 37.4269 54.9609H34.9708V42.5391C34.9708 37.1484 32.7096 32.9688 28.1871 30C32.7096 27.0313 34.9708 22.8516 34.9708 17.4609V5.03906H37.4269C39.1423 5.03906 40 4.17969 40 2.46094C40 1.75781 39.7661 1.17188 39.2982 0.703125C38.8304 0.234375 38.2066 0 37.4269 0H2.5731C1.79337 0 1.16959 0.234375 0.701754 0.703125C0.233918 1.17188 0 1.75781 0 2.46094C0 4.17969 0.8577 5.03906 2.5731 5.03906H5.02924V17.4609C5.02924 22.8516 7.29045 27.0313 11.8129 30C7.29045 32.9688 5.02924 37.1484 5.02924 42.5391ZM10.0585 17.4609V5.03906H29.9415V17.4609C29.9415 20.1953 28.9669 22.5586 27.0175 24.5508C25.0682 26.543 22.729 27.5391 20 27.5391C17.271 27.5391 14.9318 26.543 12.9825 24.5508C11.0331 22.5586 10.0585 20.1953 10.0585 17.4609ZM10.0585 42.5391C10.0585 39.8047 11.0331 37.4414 12.9825 35.4492C14.9318 33.457 17.271 32.4609 20 32.4609C22.729 32.4609 25.0682 33.457 27.0175 35.4492C28.9669 37.4414 29.9415 39.8047 29.9415 42.5391V54.9609H10.0585V42.5391ZM27.4854 12.5391L12.5146 17.4609V20.0391C12.5926 20.4297 12.768 20.8984 13.0409 21.4453C13.3138 21.9922 14.0741 22.7148 15.3216 23.6133C16.5692 24.5117 18.1287 24.9609 20 24.9609C21.8713 24.9609 23.4308 24.5508 24.6784 23.7305C25.9259 22.9102 26.7057 22.1094 27.0175 21.3281L27.4854 20.0391V12.5391ZM12.5146 52.5H27.4854V42.5391L12.5146 45V52.5Z" fill="#2CB1A1"/>
</svg>
