<svg width="70" height="60" viewBox="0 0 70 60" fill="none" xmlns="http://www.w3.org/2000/svg">
<path d="M17.4681 33.6001H4.96052C3.96536 33.6001 3.01095 33.2208 2.30726 32.5457C1.60357 31.8705 1.20824 30.9549 1.20824 30.0001C1.20824 29.0453 1.60357 28.1296 2.30726 27.4545C3.01095 26.7794 3.96536 26.4001 4.96052 26.4001H15.46L19.3493 20.8033C19.6919 20.3102 20.1562 19.906 20.7008 19.6264C21.2454 19.3468 21.8535 19.2005 22.4711 19.2005C23.0888 19.2005 23.6969 19.3468 24.2415 19.6264C24.7861 19.906 25.2504 20.3102 25.593 20.8033L32.4772 30.7102L34.3584 28.0033C34.701 27.5102 35.1652 27.1058 35.7098 26.8262C36.2544 26.5465 36.8626 26.4001 37.4803 26.4001H44.9848C45.98 26.4001 46.9344 26.7794 47.6381 27.4545C48.3418 28.1296 48.7371 29.0453 48.7371 30.0001C48.7371 30.9549 48.3418 31.8705 47.6381 32.5457C46.9344 33.2208 45.98 33.6001 44.9848 33.6001H39.4884L35.5991 39.1969C35.2564 39.6899 34.7922 40.0942 34.2476 40.3738C33.703 40.6534 33.0949 40.7997 32.4772 40.7997C31.8596 40.7997 31.2514 40.6534 30.7068 40.3738C30.1622 40.0942 29.698 39.6899 29.3553 39.1969L22.4711 29.29L20.59 31.9969C20.2474 32.49 19.7832 32.8944 19.2386 33.174C18.694 33.4537 18.0858 33.6001 17.4681 33.6001ZM49.9879 7.63791e-05C47.1492 -0.00448004 44.3422 0.571729 41.7541 1.69027C39.1659 2.80881 36.8561 4.44397 34.9787 6.48668C32.3693 3.65458 28.9469 1.62408 25.1401 0.649465C21.3334 -0.325146 17.3116 -0.200542 13.5783 1.00767C9.84506 2.21588 6.56633 4.454 4.15273 7.44172C1.73914 10.4294 0.297965 14.034 0.0097049 17.8039C-0.0257119 18.2754 0.0360231 18.749 0.191385 19.1977C0.346746 19.6463 0.592692 20.0612 0.915179 20.4187C1.56647 21.1406 2.49 21.5847 3.48259 21.6533C4.47519 21.722 5.45554 21.4095 6.20799 20.7846C6.58057 20.4752 6.88597 20.0984 7.10678 19.6758C7.32758 19.2531 7.45946 18.7929 7.49487 18.3214C7.70126 15.6302 8.84679 13.0843 10.7466 11.0945C12.6464 9.10472 15.1896 7.78716 17.9658 7.35447C20.742 6.92177 23.5891 7.39921 26.0477 8.7097C28.5063 10.0202 30.433 12.0873 31.5166 14.5774C31.802 15.2325 32.283 15.7921 32.899 16.1857C33.515 16.5792 34.2386 16.7892 34.9787 16.7892C35.7189 16.7892 36.4424 16.5792 37.0585 16.1857C37.6745 15.7921 38.1555 15.2325 38.4408 14.5774C39.5549 12.0179 41.5585 9.90764 44.111 8.60532C46.6636 7.303 49.6074 6.88902 52.4421 7.43378C55.2768 7.97854 57.8274 9.44841 59.6602 11.5935C61.4929 13.7385 62.4948 16.4264 62.4954 19.2001C62.4954 34.5679 41.4017 48.3583 34.9775 52.201C31.6742 50.227 24.4971 45.6238 18.2958 39.4933C17.9538 39.1492 17.5442 38.8735 17.0906 38.6821C16.637 38.4908 16.1483 38.3875 15.6529 38.3783C15.1574 38.369 14.665 38.4541 14.204 38.6284C13.743 38.8028 13.3225 39.0631 12.9669 39.3942C12.6113 39.7253 12.3276 40.1207 12.1321 40.5576C11.9366 40.9945 11.8333 41.4642 11.8281 41.9396C11.8229 42.415 11.9158 42.8867 12.1016 43.3274C12.2875 43.7682 12.5624 44.1693 12.9107 44.5075C22.0271 53.5204 32.6958 59.2996 33.1454 59.5411C33.7056 59.842 34.3368 60 34.9787 60C35.6207 60 36.2519 59.842 36.812 59.5411C38.1672 58.813 70 41.4541 70 19.2001C69.994 14.1097 67.8837 9.2294 64.132 5.62994C60.3803 2.03048 55.2936 0.00579344 49.9879 7.63791e-05Z" fill="#2CB1A1"/>
</svg>
