<svg width="155" height="47" viewBox="0 0 155 47" fill="none" xmlns="http://www.w3.org/2000/svg">
<path d="M67.0121 13.9895C70.7252 13.9895 73.5295 14.5089 75.425 15.5475C77.3205 16.5861 78.2683 18.4167 78.2683 21.0392C78.2683 22.6232 77.8918 23.9604 77.1387 25.051C76.4117 26.1415 75.3601 26.8037 73.9839 27.0373V27.2321C74.9187 27.4138 75.7626 27.7384 76.5156 28.2058C77.2686 28.6732 77.8658 29.3483 78.3072 30.2311C78.7486 31.114 78.9693 32.2824 78.9693 33.7365C78.9693 36.2552 78.0605 38.2286 76.2429 39.6567C74.4253 41.0848 71.9326 41.7989 68.7648 41.7989H58.3655V13.9895H67.0121ZM67.6742 25.012C69.388 25.012 70.5694 24.7394 71.2185 24.1941C71.8937 23.6488 72.2312 22.8569 72.2312 21.8182C72.2312 20.7536 71.8417 19.9876 71.0628 19.5203C70.2838 19.0529 69.0504 18.8192 67.3626 18.8192H64.2467V25.012H67.6742ZM64.2467 29.6859V36.9303H68.1027C69.8683 36.9303 71.1017 36.5928 71.8028 35.9176C72.5039 35.2166 72.8544 34.2948 72.8544 33.1523C72.8544 32.1137 72.4909 31.2827 71.7638 30.6596C71.0628 30.0104 69.7774 29.6859 67.9079 29.6859H64.2467ZM88.8964 28.9458C88.8964 29.3872 88.8704 29.9325 88.8185 30.5817C88.7925 31.2308 88.7536 31.8929 88.7016 32.5681C88.6757 33.2432 88.6367 33.8404 88.5848 34.3597C88.5329 34.879 88.4939 35.2425 88.4679 35.4503L98.283 20.5329H105.255V41.7989H99.6462V33.3081C99.6462 32.607 99.6722 31.841 99.7241 31.0101C99.776 30.1532 99.828 29.3613 99.8799 28.6342C99.9578 27.8812 100.01 27.31 100.036 26.9205L90.2596 41.7989H83.2878V20.5329H88.8964V28.9458ZM128.146 24.8952H121.174V41.7989H115.371V24.8952H108.399V20.5329H128.146V24.8952ZM140.015 20.1045C142.871 20.1045 145.052 20.7277 146.558 21.974C148.09 23.1944 148.856 25.0769 148.856 27.6216V41.7989H144.806L143.676 38.9167H143.52C142.612 40.0592 141.651 40.8901 140.638 41.4094C139.625 41.9287 138.236 42.1884 136.471 42.1884C134.575 42.1884 133.004 41.6431 131.758 40.5525C130.512 39.436 129.888 37.7352 129.888 35.4503C129.888 33.1912 130.68 31.5294 132.264 30.4648C133.848 29.3743 136.224 28.7771 139.392 28.6732L143.092 28.5563V27.6216C143.092 26.505 142.793 25.6871 142.196 25.1678C141.625 24.6485 140.82 24.3888 139.781 24.3888C138.743 24.3888 137.73 24.5446 136.743 24.8562C135.757 25.1418 134.77 25.5054 133.783 25.9468L131.875 22.013C133.017 21.4158 134.277 20.9484 135.653 20.6108C137.055 20.2733 138.509 20.1045 140.015 20.1045ZM140.833 32.0228C138.963 32.0747 137.665 32.4123 136.938 33.0354C136.211 33.6586 135.847 34.4765 135.847 35.4892C135.847 36.372 136.107 37.0082 136.626 37.3977C137.146 37.7612 137.821 37.943 138.652 37.943C139.898 37.943 140.95 37.5795 141.807 36.8524C142.663 36.0994 143.092 35.0478 143.092 33.6976V31.9449L140.833 32.0228Z" fill="#1F2020"/>
<path d="M93.772 14.059C93.6802 13.8799 93.6137 13.6573 93.5724 13.3911C93.0904 13.9281 92.4638 14.1967 91.6927 14.1967C90.9628 14.1967 90.3569 13.9855 89.8749 13.5632C89.3976 13.1409 89.1589 12.6085 89.1589 11.9658C89.1589 11.1763 89.4504 10.5704 90.0333 10.1481C90.6209 9.72581 91.4677 9.51236 92.574 9.50777H93.4897V9.08088C93.4897 8.73662 93.4002 8.4612 93.2212 8.25465C93.0468 8.04809 92.7691 7.94481 92.3881 7.94481C92.053 7.94481 91.7891 8.02513 91.5963 8.18579C91.4081 8.34645 91.314 8.56678 91.314 8.84678H89.3241C89.3241 8.4153 89.4572 8.01595 89.7235 7.64874C89.9897 7.28152 90.3661 6.99463 90.8527 6.78807C91.3392 6.57692 91.8855 6.47135 92.4914 6.47135C93.4094 6.47135 94.137 6.70316 94.674 7.16677C95.2157 7.62579 95.4865 8.27301 95.4865 9.10842V12.3376C95.4911 13.0445 95.5898 13.5793 95.7825 13.9419V14.059H93.772ZM92.1264 12.675C92.4202 12.675 92.691 12.6108 92.9389 12.4822C93.1868 12.3491 93.3704 12.1724 93.4897 11.9521V10.6714H92.7461C91.75 10.6714 91.2199 11.0157 91.1556 11.7042L91.1487 11.8212C91.1487 12.0691 91.2359 12.2734 91.4104 12.434C91.5848 12.5947 91.8235 12.675 92.1264 12.675ZM103.212 14.059H101.215V8.22022H98.7228V14.059H96.733V6.60906H103.212V14.059ZM110.635 8.20645H108.246V14.059H106.249V8.20645H103.901V6.60906H110.635V8.20645ZM114.346 14.1967C113.254 14.1967 112.363 13.8616 111.675 13.1914C110.991 12.5212 110.649 11.6284 110.649 10.513V10.3202C110.649 9.57203 110.793 8.90416 111.083 8.31661C111.372 7.72448 111.78 7.27005 112.308 6.95332C112.841 6.63201 113.446 6.47135 114.126 6.47135C115.145 6.47135 115.946 6.79266 116.529 7.43529C117.116 8.07792 117.41 8.98908 117.41 10.1688V10.9812H112.666C112.73 11.4678 112.923 11.858 113.245 12.1517C113.57 12.4455 113.981 12.5924 114.477 12.5924C115.244 12.5924 115.843 12.3147 116.274 11.7593L117.252 12.854C116.953 13.2763 116.549 13.6068 116.04 13.8455C115.53 14.0796 114.966 14.1967 114.346 14.1967ZM114.119 8.08251C113.724 8.08251 113.403 8.21563 113.155 8.48186C112.912 8.74809 112.756 9.12908 112.687 9.62482H115.455V9.46646C115.446 9.0258 115.326 8.68612 115.097 8.44743C114.867 8.20415 114.541 8.08251 114.119 8.08251ZM121.184 11.3117H120.385V14.059H118.395V6.60906H120.385V9.41138H121.094L122.719 6.60906H125.232L122.795 10.155L125.459 14.059H122.808L121.184 11.3117ZM130.245 14.059C130.153 13.8799 130.087 13.6573 130.045 13.3911C129.563 13.9281 128.937 14.1967 128.166 14.1967C127.436 14.1967 126.83 13.9855 126.348 13.5632C125.87 13.1409 125.632 12.6085 125.632 11.9658C125.632 11.1763 125.923 10.5704 126.506 10.1481C127.094 9.72581 127.941 9.51236 129.047 9.50777H129.963V9.08088C129.963 8.73662 129.873 8.4612 129.694 8.25465C129.52 8.04809 129.242 7.94481 128.861 7.94481C128.526 7.94481 128.262 8.02513 128.069 8.18579C127.881 8.34645 127.787 8.56678 127.787 8.84678H125.797C125.797 8.4153 125.93 8.01595 126.196 7.64874C126.463 7.28152 126.839 6.99463 127.326 6.78807C127.812 6.57692 128.358 6.47135 128.964 6.47135C129.882 6.47135 130.61 6.70316 131.147 7.16677C131.689 7.62579 131.959 8.27301 131.959 9.10842V12.3376C131.964 13.0445 132.063 13.5793 132.255 13.9419V14.059H130.245ZM128.599 12.675C128.893 12.675 129.164 12.6108 129.412 12.4822C129.66 12.3491 129.843 12.1724 129.963 11.9521V10.6714H129.219C128.223 10.6714 127.693 11.0157 127.628 11.7042L127.622 11.8212C127.622 12.0691 127.709 12.2734 127.883 12.434C128.058 12.5947 128.296 12.675 128.599 12.675Z" fill="#1F2020"/>
<circle cx="24.2299" cy="23.3715" r="23.3156" fill="#300815"/>
<path d="M24 26.5477L30.5081 22.6836M24 24.2292L19.2 19.5923M24 15.9067V38H19.2238H23.8902H28.5566M15.236 15.7282C15.64 11.395 19.4096 8 24 8C28.5904 8 32.36 11.395 32.764 15.7282H32.8C34.7096 15.7282 36.5409 16.461 37.8912 17.7654C39.2414 19.0698 40 20.8389 40 22.6836C40 24.5283 39.2414 26.2974 37.8912 27.6018C36.5409 28.9062 34.7096 29.639 32.8 29.639H24H15.2C13.2904 29.639 11.4591 28.9062 10.1088 27.6018C8.75857 26.2974 8 24.5283 8 22.6836C8 20.8389 8.75857 19.0698 10.1088 17.7654C11.4591 16.461 13.2904 15.7282 15.2 15.7282H15.236Z" stroke="#16A175" stroke-width="3.5" stroke-linecap="round" stroke-linejoin="round"/>
</svg>
