<svg width="30" height="32" viewBox="0 0 30 32" fill="none" xmlns="http://www.w3.org/2000/svg">
<path fill-rule="evenodd" clip-rule="evenodd" d="M0 16.4004C0 24.9849 6.63031 31.9441 14.8092 31.9441C22.9881 31.9441 29.6184 24.9849 29.6184 16.4004C29.6184 7.81579 22.9881 0.856628 14.8092 0.856628C6.63031 0.856628 0 7.81579 0 16.4004ZM12.0945 23.5246L12.3464 19.5624L12.3462 19.5622L19.2133 13.0578C19.5147 12.7771 19.1475 12.6402 18.7474 12.8948L10.2725 18.5068L6.61178 17.3075C5.82123 17.0534 5.81555 16.4833 6.78927 16.0733L21.0542 10.3C21.7058 9.98955 22.3346 10.4643 22.0859 11.5109L19.6565 23.5266C19.4869 24.3804 18.9954 24.5846 18.3143 24.1902L14.6137 21.3206L12.8349 23.136C12.8293 23.1417 12.8237 23.1474 12.8182 23.1531C12.6192 23.3564 12.4547 23.5246 12.0945 23.5246Z" fill="#72B6E8"/>
</svg>
