<svg width="38" height="37" viewBox="0 0 38 37" fill="none" xmlns="http://www.w3.org/2000/svg">
<path d="M19.2499 30.8333C22.5209 30.8333 25.658 29.5339 27.9709 27.221C30.2839 24.908 31.5833 21.771 31.5833 18.5C31.5833 15.229 30.2839 12.0919 27.9709 9.779C25.658 7.46605 22.5209 6.16665 19.2499 6.16665C15.9789 6.16665 12.8419 7.46605 10.5289 9.779C8.21599 12.0919 6.91659 15.229 6.91659 18.5C6.91659 21.771 8.21599 24.908 10.5289 27.221C12.8419 29.5339 15.9789 30.8333 19.2499 30.8333V30.8333ZM19.2499 33.9166C10.7353 33.9166 3.83325 27.0146 3.83325 18.5C3.83325 9.98536 10.7353 3.08331 19.2499 3.08331C27.7645 3.08331 34.6666 9.98536 34.6666 18.5C34.6666 27.0146 27.7645 33.9166 19.2499 33.9166Z" fill="#7B28BC"/>
<path d="M24.8677 17.5812C24.8862 15.281 22.9885 13.172 20.6374 12.8807L20.4833 12.8575C20.3654 12.8341 20.2457 12.8207 20.1256 12.8174C19.643 12.8174 19.5151 13.1659 19.4812 13.374C19.4619 13.4604 19.4602 13.5498 19.4761 13.6369C19.492 13.7241 19.5252 13.8071 19.5737 13.8812C19.734 14.1047 20.0146 14.1433 20.2397 14.1772C20.306 14.1864 20.3692 14.1942 20.42 14.208C22.5337 14.6937 23.2459 15.4599 23.5928 17.6228C23.602 17.6768 23.6051 17.7415 23.6082 17.8109C23.6236 18.0684 23.656 18.6064 24.2172 18.6064C24.2634 18.6064 24.3127 18.6033 24.3652 18.5941C24.8878 18.5124 24.8708 18.0206 24.8631 17.7847C24.8592 17.7277 24.8592 17.6705 24.8631 17.6136C24.8648 17.6034 24.8659 17.5931 24.8662 17.5827L24.8677 17.5812Z" fill="#7B28BC"/>
<path d="M19.9901 12.0358C20.0518 12.0405 20.1134 12.0451 20.1612 12.0528C23.63 12.6047 25.2271 14.3006 25.6696 17.9111C25.6773 17.9728 25.6773 18.0468 25.6788 18.127C25.6835 18.4091 25.6927 18.9949 26.3032 19.0073H26.3217C26.4055 19.0117 26.4893 18.9982 26.5675 18.9676C26.6457 18.9371 26.7164 18.8901 26.775 18.83C26.9646 18.6249 26.9523 18.3212 26.9415 18.0746C26.9384 18.016 26.9353 17.9589 26.9368 17.9096C26.98 14.2173 23.8843 10.8688 20.3108 10.7455L20.2676 10.747C20.2538 10.749 20.2399 10.7501 20.226 10.7501C20.1905 10.7501 20.1458 10.747 20.0995 10.7439C20.038 10.7383 19.9763 10.7352 19.9145 10.7347C19.3457 10.7347 19.2378 11.1509 19.2239 11.4007C19.193 11.9757 19.7311 12.0173 19.9901 12.0358V12.0358ZM25.5015 22.5762C25.4273 22.5181 25.3538 22.459 25.2811 22.3989C24.9018 22.0844 24.4979 21.7946 24.1094 21.514C24.0281 21.4556 23.9469 21.397 23.8658 21.3383C23.3663 20.9775 22.9177 20.8002 22.4938 20.8002C21.9233 20.8002 21.4254 21.1271 21.0138 21.7699C20.8318 22.0536 20.6098 22.1923 20.3385 22.1923C20.1491 22.1856 19.9634 22.1377 19.7943 22.0521C18.1833 21.2966 17.0316 20.1404 16.3733 18.6141C16.0558 17.8741 16.1575 17.3931 16.7187 17C17.0363 16.778 17.6283 16.3633 17.5866 15.5693C17.5404 14.6675 15.6118 11.9541 14.7993 11.6458C14.4527 11.515 14.0705 11.5139 13.7232 11.6427C12.7905 11.9665 12.1199 12.5369 11.7853 13.2877C11.4616 14.0153 11.477 14.8679 11.8285 15.7559C12.8414 18.3243 14.2643 20.5628 16.0619 22.4097C17.8194 24.2181 19.9808 25.6981 22.4845 26.8112C22.7096 26.9114 22.947 26.9653 23.1197 27.0054L23.2661 27.0424C23.2862 27.0482 23.3069 27.0513 23.3278 27.0517H23.3478C24.5257 27.0517 25.9394 25.9417 26.3741 24.6744C26.7549 23.5644 26.0596 23.0171 25.5015 22.5778V22.5762ZM20.5112 14.9696C20.3108 14.9743 19.8899 14.9851 19.7419 15.426C19.674 15.6326 19.6818 15.8114 19.7665 15.9578C19.8914 16.1737 20.1319 16.24 20.3493 16.2754C21.1386 16.4065 21.5456 16.8582 21.6258 17.6938C21.6643 18.0853 21.9187 18.3567 22.2455 18.3567C22.2703 18.3572 22.295 18.3562 22.3195 18.3536C22.7127 18.3043 22.9023 18.0067 22.8853 17.4671C22.8915 16.9029 22.6063 16.2646 22.1207 15.7559C21.6335 15.2441 21.0461 14.9558 20.5112 14.9696V14.9696Z" fill="#7B28BC"/>
</svg>
