<svg width="65" height="62" viewBox="0 0 65 62" fill="none" xmlns="http://www.w3.org/2000/svg">
<path d="M23.9243 14.7582L43.5936 4L50.1656 14.7852L23.9243 14.7582V14.7582Z" stroke="#2CB1A1" stroke-width="7" stroke-linecap="round" stroke-linejoin="round"/>
<path d="M4 17.5C4 16.7839 4.30027 16.0971 4.83474 15.5908C5.36922 15.0845 6.09413 14.8 6.85 14.8H58.1499C58.9058 14.8 59.6307 15.0845 60.1652 15.5908C60.6996 16.0971 60.9999 16.7839 60.9999 17.5V55.3C60.9999 56.0161 60.6996 56.7029 60.1652 57.2092C59.6307 57.7156 58.9058 58 58.1499 58H6.85C6.09413 58 5.36922 57.7156 4.83474 57.2092C4.30027 56.7029 4 56.0161 4 55.3V17.5Z" stroke="#2CB1A1" stroke-width="7" stroke-linejoin="round"/>
<path d="M48.531 43.1502H60.9998V29.6501H48.531C44.3985 29.6501 41.0498 32.6728 41.0498 36.4002C41.0498 40.1275 44.3985 43.1502 48.531 43.1502Z" stroke="#2CB1A1" stroke-width="7" stroke-linejoin="round"/>
<path d="M61 20.875V53.275" stroke="#2CB1A1" stroke-width="7" stroke-linecap="round"/>
</svg>
