<svg width="30" height="31" viewBox="0 0 30 31" fill="none" xmlns="http://www.w3.org/2000/svg">
<path d="M27.7564 7.16857C23.2688 -0.000236975 14.1065 -2.1315 7.00111 2.32478C0.0826717 6.78107 -2.16114 16.4686 2.32649 23.6374L2.70046 24.2187L1.20458 30.0312L6.81412 28.4812L7.37508 28.8687C9.80588 30.225 12.4237 31 15.0415 31C17.8462 31 20.651 30.225 23.0818 28.675C30.0002 24.0249 32.0571 14.5311 27.7564 7.16857V7.16857ZM23.8297 22.0874C23.0818 23.2499 22.1469 24.0249 20.838 24.2187C20.09 24.2187 19.1551 24.6062 15.4154 23.0562C12.2367 21.5062 9.61889 18.9874 7.74905 16.0811C6.62714 14.7249 6.06618 12.9811 5.8792 11.2373C5.8792 9.68734 6.44015 8.33108 7.37508 7.36232C7.74905 6.97482 8.12302 6.78107 8.49699 6.78107H9.43191C9.80588 6.78107 10.1798 6.78107 10.3668 7.55607C10.7408 8.52483 11.6757 10.8498 11.6757 11.0436C11.8627 11.2373 11.8627 11.6249 11.6757 11.8186C11.8627 12.2061 11.6757 12.5936 11.4887 12.7874C11.3018 12.9811 11.1148 13.3686 10.9278 13.5624C10.5538 13.7561 10.3668 14.1436 10.5538 14.5311C11.3018 15.6936 12.2367 16.8561 13.1716 17.8249C14.2935 18.7937 15.4154 19.5687 16.7243 20.1499C17.0983 20.3437 17.4723 20.3437 17.6592 19.9562C17.8462 19.5687 18.7811 18.5999 19.1551 18.2124C19.5291 17.8249 19.7161 17.8249 20.09 18.0187L23.0818 19.5687C23.4558 19.7624 23.8297 19.9562 24.0167 20.1499C24.2037 20.7312 24.2037 21.5062 23.8297 22.0874V22.0874Z" fill="#57E614"/>
</svg>
