<svg width="210" height="282" viewBox="0 0 210 282" fill="none" xmlns="http://www.w3.org/2000/svg">
<path opacity="0.1" d="M397.931 129.31V182.201H308.813V129.31H397.931ZM397.931 183.837V229.26C397.421 229.356 396.92 229.451 396.414 229.532C395.736 229.654 395.053 229.765 394.358 229.861L393.947 229.914C393.676 229.956 393.4 229.991 393.125 230.021C392.438 230.113 391.752 230.182 391.069 230.243C390.749 230.274 390.416 230.296 390.091 230.323L389.297 230.377C388.866 230.407 388.438 230.43 388.01 230.446C387.747 230.446 387.484 230.465 387.217 230.472C386.95 230.48 386.806 230.472 386.592 230.472H385.815C385.461 230.472 385.108 230.472 384.758 230.472H384.306C383.953 230.472 383.599 230.472 383.249 230.442H383.229C382.982 230.442 382.74 230.442 382.493 230.415C382.423 230.419 382.353 230.419 382.283 230.415C382.078 230.415 381.872 230.415 381.675 230.392C381.628 230.389 381.582 230.389 381.535 230.392C381.079 230.365 380.618 230.331 380.154 230.293C379.689 230.254 379.249 230.209 378.785 230.163L377.851 230.056C374.038 229.559 370.266 228.813 366.566 227.823C358.248 225.666 350.12 222.649 341.807 220.443C331.068 217.595 319.194 216.192 308.817 219.659V183.837H397.931ZM308.813 70.4202V0.00644516C318.569 -0.0933759 328.299 0.966676 337.765 3.16084C360.333 8.43346 380.598 19.8696 397.931 34.4754V70.4164H393.446V72.049H397.931V127.673H308.813V72.049H375.097V70.4126L308.813 70.4202ZM194.32 46.6342C199.903 46.4506 205.454 44.8103 210.478 42.2677C220.074 37.4157 227.745 29.9139 236.314 23.5899C254.116 10.4102 276.194 2.45349 298.843 0.48056V70.4202H171.634L171.317 70.1105L194.32 46.6342ZM182.73 44.7224L170.441 57.2673V41.4227C174.577 41.9083 178.179 43.0362 182.73 44.7071V44.7224ZM170.441 240.54V183.837H196.647C196.713 183.596 196.787 183.351 196.869 183.107C196.791 183.351 196.721 183.596 196.651 183.837H298.843V224.84C297.873 225.509 296.915 226.217 295.965 226.928C294.94 227.708 293.922 228.497 292.911 229.295L291.891 230.079C291.402 230.461 290.904 230.843 290.411 231.206C289.421 231.948 288.425 232.682 287.422 233.409C286.92 233.776 286.416 234.137 285.909 234.491C277.879 240.198 269.408 245.35 260.566 249.903C258.585 250.932 256.583 251.922 254.568 252.89C253.228 253.532 251.878 254.162 250.518 254.778C248.479 255.704 246.423 256.596 244.351 257.455C225.247 265.43 205.046 270.901 184.325 273.712C179.726 274.342 175.106 274.839 170.466 275.204V240.532H170.055L170.441 240.54ZM298.843 72.049V127.673H170.441V72.049H298.843ZM298.843 129.302V182.201H170.441V129.31L298.843 129.302ZM160.475 41.3462V59.0491L144.795 43.0401C149.991 42.2422 155.218 41.6776 160.475 41.3462ZM160.475 129.31V182.201H35.5928V129.31H160.475ZM36.0327 244.734L35.5928 183.837H160.475V275.819C152.431 276.13 144.375 276.04 136.342 275.548H136.202C132.365 275.318 128.545 274.992 124.744 274.569H124.657C104.37 272.373 84.533 267.445 65.7702 259.94L36.0327 244.734ZM11.5002 137.997C11.9744 136.977 12.4609 135.958 12.9597 134.938C13.8889 133.026 14.8674 131.168 15.8788 129.314H25.6227V182.201H0.991524C1.01208 167.22 5.09058 151.926 11.5002 137.997V137.997ZM25.6227 183.837V236.219C18.6868 230.036 12.8199 222.959 8.60166 214.869C3.52413 205.122 1.20122 194.577 1.00799 183.833L25.6227 183.837ZM25.6227 113.897V127.662H16.7915C19.4686 122.93 22.4165 118.335 25.6227 113.897V113.897ZM110.317 51.7271C110.966 51.4938 111.62 51.2606 112.274 51.0388C119.166 48.6698 126.21 46.7008 133.365 45.143L157.367 69.6364L157.836 70.1067L157.528 70.4164H72.1017C84 62.8023 96.8281 56.5286 110.317 51.7271V51.7271ZM69.5937 72.049H158.724L160.475 73.5364V127.673H145.119H35.5928V101.444C45.4964 90.3061 56.9275 80.4235 69.5937 72.049V72.049Z" fill="#2D9FD9"/>
<path opacity="0.1" d="M170.445 74.389H196.314V127.67H170.445V74.389Z" fill="#2D9FD9"/>
<path opacity="0.1" d="M170.441 129.306V182.201H298.843V159.386H230.451V172.844H196.314V129.306H170.441Z" fill="#2D9FD9"/>
<path opacity="0.1" d="M170.034 240.551C170.17 240.551 170.306 240.551 170.445 240.528V275.227C175.08 274.872 179.699 274.376 184.301 273.739C205.029 270.929 225.238 265.46 244.351 257.489C249.869 255.175 255.274 252.653 260.566 249.923C269.405 245.367 277.874 240.215 285.905 234.51C287.928 233.072 289.92 231.603 291.883 230.101C293.244 229.054 294.592 227.983 295.965 226.947C296.911 226.232 297.869 225.525 298.843 224.852V183.837H196.651C196.725 183.592 196.791 183.351 196.865 183.107C196.787 183.351 196.713 183.592 196.647 183.837H170.441V240.524C170.306 240.528 170.17 240.54 170.034 240.551Z" fill="#2D9FD9"/>
<path opacity="0.1" d="M102.974 70.4202H119.831V65.549H112.278V51.0388C111.623 51.2631 110.971 51.4925 110.321 51.7271V65.549H102.979L102.974 70.4202Z" fill="#2D9FD9"/>
<path opacity="0.1" d="M62.358 127.673H145.12C145.112 127.675 145.103 127.675 145.095 127.673H145.132H160.476V74.3928H156.126V113.775H136.251V90.4516H119.827V72.049H102.97V90.463H86.5533V113.786H62.3538L62.358 127.673Z" fill="#2D9FD9"/>
<path opacity="0.1" d="M160.476 129.31V182.201H62.3538V129.31H160.476ZM35.7328 244.455L35.593 202.587H62.3538V183.852H160.476V275.819C152.432 276.13 144.375 276.04 136.342 275.548H136.202C132.365 275.318 128.545 274.992 124.744 274.569H124.657C104.37 272.373 84.5333 267.445 65.7704 259.94" fill="#2D9FD9"/>
<path opacity="0.1" d="M23.8963 183.837H1.00833C1.20567 194.577 3.52447 205.126 8.602 214.869C12.8203 222.963 18.6872 230.04 25.623 236.223V202.576H23.8963V183.837Z" fill="#2D9FD9"/>
<path opacity="0.1" d="M0.992072 182.201H23.8965V137.997H11.5007C5.09112 151.926 1.01263 167.22 0.992072 182.201Z" fill="#2D9FD9"/>
<path opacity="0.1" d="M170.441 89.2014H184.301V105.906H170.441V89.2014Z" fill="#2D9FD9"/>
<path opacity="0.1" d="M170.441 123.827H184.301V127.673H170.441V123.827Z" fill="#2D9FD9"/>
<path opacity="0.1" d="M170.441 129.306H184.301V140.528H170.441V129.306Z" fill="#2D9FD9"/>
<path opacity="0.1" d="M170.441 158.453H184.301V175.158H170.441V158.453Z" fill="#2D9FD9"/>
<path opacity="0.1" d="M170.441 193.078H184.301V209.783H170.441V193.078Z" fill="#2D9FD9"/>
<path opacity="0.1" d="M170.441 240.524C170.306 240.524 170.17 240.524 170.03 240.551C170.166 240.551 170.302 240.551 170.441 240.528V244.409H184.301V227.704H170.441V240.524Z" fill="#2D9FD9"/>
<path opacity="0.1" d="M170.441 262.326V275.227C175.079 274.872 179.699 274.376 184.301 273.739V262.326H170.441Z" fill="#2D9FD9"/>
<path opacity="0.1" d="M124.649 134.433H136.342V145.308H124.649V134.433Z" fill="#2D9FD9"/>
<path opacity="0.1" d="M80.0124 134.433H91.7051V145.308H80.0124V134.433Z" fill="#2D9FD9"/>
<path opacity="0.1" d="M124.649 161.255H136.342V172.129H124.649V161.255Z" fill="#2D9FD9"/>
<path opacity="0.1" d="M80.0124 161.255H91.7051V172.129H80.0124V161.255Z" fill="#2D9FD9"/>
<path opacity="0.1" d="M124.649 188.073H136.342V198.947H124.649V188.073Z" fill="#2D9FD9"/>
<path opacity="0.1" d="M80.0124 188.073H91.7051V198.947H80.0124V188.073Z" fill="#2D9FD9"/>
<path opacity="0.1" d="M124.649 214.895H136.342V225.769H124.649V214.895Z" fill="#2D9FD9"/>
<path opacity="0.1" d="M80.0124 214.895H91.7051V225.769H80.0124V214.895Z" fill="#2D9FD9"/>
<path opacity="0.1" d="M124.649 241.717H136.342V252.591H124.649V241.717Z" fill="#2D9FD9"/>
<path opacity="0.1" d="M80.0124 241.717H91.7051V252.591H80.0124V241.717Z" fill="#2D9FD9"/>
<path opacity="0.1" d="M136.342 275.548V268.535H124.653V274.55L136.342 275.548Z" fill="#2D9FD9"/>
<path opacity="0.1" d="M170.446 240.524H170.034H170.446ZM196.869 183.107C196.791 183.351 196.721 183.596 196.651 183.837C196.713 183.596 196.787 183.351 196.869 183.107ZM393.446 70.4201V72.0489H375.08V70.4125L393.446 70.4201ZM170.441 240.524H170.03H170.441ZM196.869 183.107C196.791 183.351 196.721 183.596 196.651 183.837C196.713 183.596 196.787 183.351 196.869 183.107ZM170.446 240.524H170.034H170.446ZM196.869 183.107C196.791 183.351 196.721 183.596 196.651 183.837C196.713 183.596 196.787 183.351 196.869 183.107Z" fill="#2D9FD9"/>
<g filter="url(#filter0_d)">
<path d="M189.293 148.558C189.293 148.558 183.534 114.811 185.739 110.612C185.739 110.612 185.819 106.708 185.686 101.733C185.686 101.544 185.686 101.355 185.686 101.162C186.074 101.466 186.479 101.741 186.897 101.984C188.928 103.213 191.26 103.567 193.49 102.986L191.746 100.698C191.327 100.151 190.891 99.5596 190.8 98.8364C190.71 98.1133 190.961 97.4683 191.177 96.8233C192.834 91.893 192.921 85.6931 189.729 81.9297C187.033 78.7661 186.377 74.6822 183.45 71.7939C181.312 69.6779 180.136 66.576 179.027 63.5767C178.089 61.0417 177.143 58.4862 176.606 55.7992C176.187 53.6997 176.02 51.5263 175.444 49.4761C174.869 47.4259 173.791 45.4333 172.106 44.5171C171.506 44.1925 170.84 44.0076 170.292 43.5762C169.574 43.0051 169.141 42.0766 168.621 41.2631C165.98 37.1545 157.137 39.5744 152.951 41.2425C151.813 41.6626 150.759 42.3503 149.854 43.2639L149.892 43.19C149.923 43.1284 149.962 43.0667 149.997 43.0051C149.538 43.4415 149.143 43.9617 148.825 44.5458C148.214 45.6839 147.959 47.011 147.45 48.2435C146.836 49.7021 143.421 53.7737 144.89 55.413C144.993 55.5231 145.111 55.612 145.239 55.6759C145.79 55.9462 146.397 56.0177 146.983 55.8814L146.92 56.058C146.418 57.5044 146.161 59.0521 146.163 60.6144C146.163 67.3648 150.89 72.8374 156.726 72.8374C157.823 72.8387 158.914 72.6405 159.96 72.2499C159.984 72.406 160.005 72.5622 160.029 72.7183C160.029 72.7799 160.047 72.8415 160.054 72.9032L159.869 73.2072C159.86 73.1885 159.849 73.1706 159.837 73.1538L154.361 82.168C153.523 82.8623 148.703 86.9709 148.43 90.0523C148.144 93.4255 147.858 97.3738 147.858 97.3738L147.82 98.2202C147.581 98.4557 147.301 98.6273 147 98.7231C146.698 98.8188 146.383 98.8365 146.076 98.7748C144.366 98.4461 144.366 106.17 144.366 106.17C144.366 106.17 143.229 107.403 142.448 106.335C141.666 105.266 139.601 108.886 139.601 108.886L126.659 109.543L126.363 109.564L125.665 107.021C125.59 106.752 125.428 106.53 125.215 106.401C125.001 106.273 124.753 106.249 124.524 106.335C124.47 106.356 124.418 106.382 124.368 106.413L124.319 106.446L124.228 106.519L124.183 106.569C124.158 106.596 124.134 106.624 124.113 106.655L124.071 106.713L124.05 106.737C123.97 106.868 123.916 107.02 123.894 107.18C123.873 107.34 123.883 107.503 123.924 107.658L124.524 109.839C122.027 110.431 119.473 112.099 121.556 116.692L111 114.396L114.415 117.773L132.045 122.058C131.812 122.551 131.965 123.266 132.694 124.273C135.834 128.615 141.555 129.795 143.857 130.099C144.465 131.7 145.225 133.217 146.121 134.618L145.922 138.944C145.922 138.944 140.093 171.92 139.026 173.592C139.565 172.873 140.058 172.108 140.501 171.303C138.809 178.078 136.444 187.351 135.823 188.74C134.826 190.959 133.901 199.936 135.038 200.511C135.387 200.688 136.385 200.602 137.808 200.474V201.218L137.745 229.399C137.745 229.399 138.032 246.683 137.247 248.331C136.462 249.978 136.252 253.434 136.252 253.434C136.252 253.434 133.113 260.25 130.626 262.99C130.609 263.012 130.59 263.031 130.57 263.048L130.493 262.407C130.493 262.407 127.504 266.852 120.89 266.602C120.89 266.602 116.909 269.65 122.812 269.815C128.714 269.979 136.252 269.568 136.252 269.568C136.252 269.568 141.516 260.118 145.926 261.351V268.512H147.276V261.236C147.902 260.75 148.438 260.12 148.851 259.384C149.264 258.647 149.546 257.819 149.679 256.951C149.795 256.055 149.71 255.14 149.434 254.295C149.157 253.45 148.698 252.704 148.102 252.131C147.835 251.846 147.62 251.499 147.472 251.112C147.324 250.724 147.245 250.305 147.241 249.88L147.192 249.929C147.192 249.785 147.161 249.637 147.147 249.485C146.759 245.788 146.275 238.158 147.987 232.513C150.335 224.772 151.047 213.991 149.337 207.574C148.786 205.522 148.333 203.436 147.98 201.325C147.939 201.058 147.9 200.803 147.865 200.565C149.034 200.751 150.191 201.025 151.329 201.386C155.289 202.672 163.95 202.911 171.346 202.841C171.363 203.079 171.384 203.33 171.408 203.58C171.54 205.322 171.816 207.045 172.232 208.724C173.16 212.011 173.585 226.502 173.585 226.502C173.585 226.502 174.782 238.417 174.129 243.265C173.781 245.96 173.432 248.668 173.233 251.388V251.441C173.233 251.441 171.272 258.015 169.839 261.585C169.804 261.676 169.765 261.766 169.73 261.852C169.348 261.893 168.972 261.991 168.611 262.144C168.611 262.144 166.689 266.663 164.773 267.411C162.858 268.159 163.493 270.62 167.829 269.716C172.165 268.812 178.713 268.073 178.713 268.073L178.996 263.463L180.328 261.499L179.979 266.096L181.399 265.768L181.211 260.176L183.391 256.963C183.391 256.963 186.025 254.202 182.111 248.77V248.89C182.069 248.812 182.031 248.729 181.985 248.651V248.627C181.336 247.443 180.82 245.237 181.765 241.322C183.475 234.247 184.469 227.825 184.469 227.825C184.469 227.825 188.285 210.622 183.698 202.483H183.9C183.43 201.338 183.098 200.121 182.913 198.868C182.89 198.72 182.869 198.568 182.85 198.412C186.244 198.182 189.576 197.459 192.293 195.897C192.283 195.881 190.647 155.058 189.293 148.558ZM146.201 120.086V120.168L145.504 120.209L146.201 120.086ZM143.808 120.476C143.694 120.506 143.586 120.567 143.494 120.653C143.194 121.153 143.006 121.734 142.947 122.342L141.858 122.054C141.858 122.054 141.094 121.861 139.995 121.643L139.476 121.027C140.906 120.887 142.392 120.682 143.808 120.476V120.476Z" fill="url(#paint0_linear)"/>
<path d="M179.819 260.233L179.404 266.055L180.796 265.727L180.586 259.412L179.819 260.233Z" fill="#1D2366"/>
<path d="M148.064 232.591C146.386 238.22 146.861 245.816 147.237 249.506C147.377 250.87 147.506 251.7 147.506 251.7C147.506 251.7 144.998 258.43 144.789 258.684C144.579 258.939 137.407 264.095 137.407 264.095L132.394 267.543C132.394 267.543 127.308 264.917 129.747 264.013C130.245 263.778 130.694 263.417 131.062 262.957C133.504 260.225 136.57 253.434 136.57 253.434C136.57 253.434 136.779 249.987 137.547 248.347C138.314 246.708 138.035 229.481 138.035 229.481L138.094 201.399V197.738L147.635 197.82C147.695 199.063 147.833 200.299 148.047 201.518C148.389 203.622 148.833 205.702 149.376 207.746C151.057 214.152 150.359 224.879 148.064 232.591Z" fill="#FFB0B1"/>
<path opacity="0.1" d="M147.506 251.7C147.506 251.7 144.998 258.43 144.789 258.684C144.579 258.939 137.407 264.095 137.407 264.095L132.394 267.543C132.394 267.543 127.308 264.917 129.747 264.013C130.245 263.778 130.694 263.418 131.062 262.957L131.278 264.753L132.949 264.671L147.251 249.514C147.377 250.87 147.506 251.7 147.506 251.7Z" fill="#264653"/>
<path d="M147.332 249.896L132.949 265.155L131.278 265.238L130.929 262.362C130.929 262.362 128.006 266.791 121.511 266.544C121.511 266.544 117.611 269.58 123.391 269.745C129.171 269.909 136.553 269.498 136.553 269.498C136.553 269.498 141.708 260.048 146.024 261.281V268.418H147.349V261.215C147.966 260.727 148.492 260.096 148.896 259.362C149.3 258.628 149.573 257.805 149.7 256.942C149.815 256.054 149.734 255.146 149.465 254.306C149.195 253.465 148.747 252.721 148.162 252.144C147.901 251.855 147.693 251.507 147.55 251.121C147.407 250.734 147.333 250.318 147.332 249.896V249.896Z" fill="#1D2366"/>
<path d="M181.144 241.367C180.217 245.27 180.722 247.468 181.357 248.647V248.672C182.172 250.128 182.738 251.756 183.025 253.467L183.081 253.836L176.536 265.073L172.985 266.717C172.985 266.717 167.275 264.42 168.318 263.763C168.579 263.603 168.987 262.748 169.455 261.569C170.85 258.015 172.776 251.458 172.776 251.458V251.404C172.978 248.697 173.299 245.997 173.655 243.31C174.293 238.474 173.121 226.605 173.121 226.605C173.121 226.605 172.703 212.171 171.796 208.889C171.386 207.22 171.114 205.508 170.983 203.778C170.794 201.723 170.753 200.031 170.753 200.031C170.753 200.031 174.513 193.868 181.406 200.524C181.957 201.054 182.442 201.674 182.847 202.364C187.608 210.343 183.775 227.92 183.775 227.92C183.775 227.92 182.815 234.313 181.144 241.367Z" fill="#FFB0B1"/>
<path opacity="0.1" d="M183.091 253.836L176.547 265.073L172.995 266.717C172.995 266.717 167.285 264.42 168.328 263.763C168.59 263.602 168.998 262.748 169.465 261.569C171.883 261.544 173.135 264.256 173.135 264.256L176.198 263.68C176.198 263.68 180.237 254.329 181.144 253.758C182.051 253.187 181.284 249.489 181.284 249.489V248.549C181.308 248.581 181.329 248.618 181.357 248.651V248.676C182.171 250.132 182.738 251.76 183.024 253.471L183.091 253.836Z" fill="#264653"/>
<path d="M173.345 264.498C173.345 264.498 171.6 260.726 168.258 262.119C168.258 262.119 166.378 266.639 164.498 267.37C162.618 268.101 163.246 270.566 167.495 269.667C171.743 268.767 178.148 268.023 178.148 268.023L178.427 263.426L182.746 256.946C182.746 256.946 185.32 254.198 181.49 248.787V249.728C181.49 249.728 182.257 253.425 181.35 253.997C180.443 254.568 176.418 263.923 176.418 263.923L173.345 264.498Z" fill="#1D2366"/>
<path opacity="0.1" d="M147.645 197.812C147.706 199.055 147.843 200.291 148.057 201.51C144.129 200.832 140.484 201.169 138.094 201.391V197.73L147.645 197.812Z" fill="#264653"/>
<path opacity="0.1" d="M183.234 203.387C183.234 203.387 177.653 203.708 170.997 203.773C170.808 201.719 170.767 200.026 170.767 200.026C170.767 200.026 174.527 193.864 181.42 200.519C181.971 201.05 182.456 201.67 182.861 202.36C182.969 202.71 183.094 203.053 183.234 203.387V203.387Z" fill="#264653"/>
<path d="M183.234 202.648C183.234 202.648 158.787 204.04 151.336 201.579C143.885 199.118 136.5 201.251 135.387 200.68C134.275 200.109 135.178 191.164 136.155 188.95C137.132 186.735 142.49 164.339 142.49 164.339L147.645 132.679L153.077 130.916L153.461 130.789L162.925 127.716L169.86 125.46C169.86 125.46 183.649 188.867 182.467 193.543C182.037 195.333 181.968 197.217 182.264 199.044C182.445 200.292 182.771 201.505 183.234 202.648V202.648Z" fill="#1D2366"/>
<path d="M129.673 111.026C129.673 111.026 124.79 117.189 128.487 120.624C132.185 124.059 134.616 120.953 134.616 120.953L129.673 111.026Z" fill="#C7DAF5"/>
<path opacity="0.1" d="M129.673 111.026C129.673 111.026 124.79 117.189 128.487 120.624C132.185 124.059 134.616 120.953 134.616 120.953L129.673 111.026Z" fill="#264653"/>
<path d="M169.13 70.5078C169.13 70.5078 168.558 71.1488 167.697 72.0937C166.469 73.4454 164.651 75.4217 163.04 77.0774C160.807 79.3659 158.965 81.0463 159.624 79.6124C160.284 78.1785 160.158 75.6805 159.83 73.3427C159.806 73.1866 159.785 73.0305 159.761 72.8785C159.489 71.1616 159.129 69.4657 158.683 67.8003C158.683 67.8003 162.29 62.3112 164.285 60.146C165.028 59.3243 165.548 58.9874 165.579 59.5585C165.614 60.3268 166.102 62.0236 166.709 63.8232C166.727 63.8807 166.744 63.9341 166.765 63.9916C167.17 65.2242 167.627 66.4896 168.028 67.5825C168.642 69.2588 169.13 70.5078 169.13 70.5078Z" fill="#FFB0B1"/>
<path opacity="0.1" d="M166.765 63.9917C166.426 66.139 165.604 68.1396 164.384 69.7846C163.164 71.4296 161.591 72.6584 159.83 73.3428C159.553 71.4673 159.17 69.6157 158.683 67.8003C158.683 67.8003 165.475 57.4673 165.579 59.5585C165.604 60.3515 166.134 62.11 166.765 63.9917Z" fill="#264653"/>
<path opacity="0.1" d="M159.154 76.1036L160.033 74.6451C160.033 74.6451 160.615 78.8276 162.757 76.9829C164.899 75.1381 165.004 90.8657 165.004 90.8657L162.705 131.347L146.093 130.177L146.564 110.616L148.444 100.755L153.094 86.4202L155.861 81.6831L159.154 76.1036Z" fill="#264653"/>
<path d="M165.004 91.1165L162.911 127.72L162.691 131.598L153.429 130.945L153.08 130.92L146.104 130.427L146.574 110.862L148.455 101.002L153.105 86.6669L155.871 81.9297L159.164 76.3297L160.043 74.8753C160.043 74.8753 160.626 79.0578 162.768 77.2131L162.813 77.1761C164.906 75.6148 165.004 91.1165 165.004 91.1165Z" fill="#1D2366"/>
<path d="M148.688 97.5751C148.688 97.5751 147.855 99.6294 146.18 99.2966C144.506 98.9638 144.509 106.692 144.509 106.692C144.509 106.692 143.397 107.925 142.629 106.856C141.862 105.788 139.838 109.4 139.838 109.4L127.162 110.057C127.162 110.057 132.802 113.093 131.697 122.28C131.697 122.28 150.848 120.883 151.476 118.751C152.104 116.618 148.688 97.5751 148.688 97.5751Z" fill="white"/>
<path opacity="0.03" d="M148.688 97.5751C148.688 97.5751 147.855 99.6294 146.18 99.2966C144.506 98.9638 144.509 106.692 144.509 106.692C144.509 106.692 143.397 107.925 142.629 106.856C141.862 105.788 139.838 109.4 139.838 109.4L127.162 110.057C127.162 110.057 132.802 113.093 131.697 122.28C131.697 122.28 150.848 120.883 151.476 118.751C152.104 116.618 148.688 97.5751 148.688 97.5751Z" fill="#264653"/>
<path d="M111.848 114.884L115.19 118.245L142.699 125.053L139.287 120.953L111.848 114.884Z" fill="white"/>
<path d="M159.206 77.3979C158.749 78.2196 157.441 82.4267 156.349 86.0998C155.438 89.1607 154.678 91.8518 154.678 91.8518C154.678 91.8518 152.902 105.468 151.995 107.929C151.088 110.39 151.58 119.987 151.58 119.987L148.2 143.69C148.2 143.69 146.668 155.913 144.303 163.214C141.97 170.399 139.371 173.768 139.291 173.875C140.337 172.207 146.041 139.363 146.041 139.363L147.924 97.9407C147.924 97.9407 148.2 94.0047 148.479 90.6398C148.758 87.2749 154.409 82.6815 154.409 82.6815L159.858 73.5563C160.406 74.4191 160.039 75.9229 159.206 77.3979Z" fill="white"/>
<path d="M144.998 130.633C144.998 130.633 136.974 130.222 133.088 124.725C129.202 119.227 142.071 122.531 142.071 122.531L145.416 123.435L144.998 130.633Z" fill="#FFB0B1"/>
<path opacity="0.1" d="M182.466 193.547C182.037 195.338 181.968 197.221 182.264 199.049C173.512 199.78 164.149 196.994 164.149 196.994C162.405 198.884 157.81 201.67 157.81 201.67L155.306 165.104C153.705 160.173 153.077 134.343 153.077 134.343C153.077 134.343 153.22 132.991 153.425 130.965C153.425 130.916 153.425 130.863 153.443 130.813C154.067 125.156 155.306 114.535 155.913 113.101C156.75 111.129 153.338 105.883 153.338 105.883L154.891 90.2906L155.079 88.4089C158.351 86.6874 160.859 81.1901 160.859 81.1901L162.785 77.2171C164.878 75.6353 164.986 91.137 164.986 91.137L162.893 127.74L169.828 125.485C169.828 125.485 183.649 188.872 182.466 193.547Z" fill="#264653"/>
<path d="M191.449 196.074C181.909 201.653 164.568 196.485 164.568 196.485C162.824 198.375 158.229 201.16 158.229 201.16L155.721 164.594C154.124 159.664 153.496 133.833 153.496 133.833C153.496 133.833 155.512 114.56 156.349 112.592C156.593 112.017 156.475 111.162 156.185 110.242C154.762 105.861 154.238 101.146 154.657 96.4821L155.327 89.781L155.512 87.9034C158.788 86.1778 161.296 80.6806 161.296 80.6806L163.04 77.0815L166.249 70.4502L167.77 67.3113L168.028 67.5865L169.999 69.6901C169.999 69.6901 170.836 70.5119 172.092 71.7444C174.824 74.4561 179.543 79.2302 181.978 82.1514C184.12 84.7234 184.797 94.7278 184.992 102.259C185.121 107.218 185.045 111.105 185.045 111.105C182.885 115.291 188.533 148.903 188.533 148.903C189.848 155.399 191.449 196.074 191.449 196.074Z" fill="white"/>
<path opacity="0.03" d="M173.135 80.5985C173.135 80.5985 166.587 95.2784 167.348 100.858C168.108 106.437 170.271 112.752 169.228 114.227C168.87 114.786 168.406 115.24 167.875 115.552C167.343 115.865 166.756 116.029 166.162 116.031C165.115 116.113 162.325 118.41 162.325 118.656C162.325 118.903 159.747 118.903 157.441 120.053C155.135 121.204 151.73 121.857 151.73 121.857C151.73 121.857 145.102 121.61 144.485 122.35C143.868 123.089 143.233 127.514 144.555 131.044C145.877 134.573 147.346 137.206 148.455 137.687C149.564 138.168 156.604 135.39 162.314 134.733C168.025 134.076 174.224 128.747 174.224 128.747C174.224 128.747 181.05 125.871 182.247 121.035C183.443 116.199 180.785 89.6209 180.785 89.6209C180.785 89.6209 178.776 77.2336 173.135 80.5985Z" fill="#264653"/>
<path opacity="0.03" d="M172.298 79.366C172.298 79.366 165.75 94.05 166.518 99.6254C167.285 105.201 169.441 111.52 168.394 112.999C168.037 113.558 167.575 114.012 167.043 114.325C166.512 114.638 165.926 114.802 165.332 114.802C164.285 114.885 161.494 117.181 161.494 117.428C161.494 117.674 158.916 117.674 156.611 118.821C154.305 119.967 150.9 120.624 150.9 120.624C150.9 120.624 144.272 120.378 143.658 121.117C143.044 121.857 142.402 126.286 143.728 129.811C145.054 133.336 146.519 135.974 147.628 136.455C148.737 136.935 155.777 134.158 161.487 133.505C167.198 132.851 173.397 127.514 173.397 127.514C173.397 127.514 180.22 124.638 181.403 119.807C182.585 114.975 179.941 88.3884 179.941 88.3884C179.941 88.3884 177.939 76.0052 172.298 79.366Z" fill="#264653"/>
<path d="M172.929 79.859C172.929 79.859 166.381 94.543 167.149 100.118C167.916 105.694 170.072 112.013 169.029 113.488C168.672 114.048 168.209 114.504 167.677 114.817C167.145 115.131 166.558 115.295 165.963 115.295C164.916 115.378 162.125 117.674 162.125 117.917C162.125 118.159 159.551 118.163 157.242 119.314C154.932 120.464 151.531 121.117 151.531 121.117C151.531 121.117 144.903 120.871 144.286 121.61C143.668 122.35 143.033 126.779 144.356 130.304C145.678 133.829 147.146 136.467 148.256 136.948C149.365 137.428 156.404 134.651 162.115 133.993C167.825 133.336 174.024 128.007 174.024 128.007C174.024 128.007 180.851 125.131 182.048 120.295C183.244 115.46 180.603 88.8814 180.603 88.8814C180.603 88.8814 178.566 76.5146 172.929 79.859Z" fill="white"/>
<path opacity="0.1" d="M172.786 119.244C172.786 119.244 167.554 118.011 169.375 120.065C171.196 122.12 171.185 123.919 173.414 123.837C175.643 123.755 172.786 119.244 172.786 119.244Z" fill="#264653"/>
<path opacity="0.1" d="M181.63 163.444C181.63 163.444 179.264 165.329 183.789 169.676C188.313 174.023 181.63 163.444 181.63 163.444Z" fill="#264653"/>
<path opacity="0.1" d="M177.115 178.945C177.115 179.192 176.278 187.984 179.411 190.182C182.543 192.38 177.115 178.945 177.115 178.945Z" fill="#264653"/>
<path d="M127.378 110.036C124.853 110.139 119.397 111.047 122.226 117.263C124.727 122.765 128.93 119.088 131.296 116.298C130.719 113.697 129.316 111.456 127.378 110.036V110.036Z" fill="#FFB0B1"/>
<path d="M131.327 116.248L131.431 116.121L131.327 116.248Z" fill="#FFB0B1"/>
<path opacity="0.1" d="M172.092 71.9951C169.413 74.1521 167.166 75.9722 166.727 76.3502C165.527 77.3979 163.238 83.5484 161.763 86.6874C160.587 89.2142 156.767 89.8633 155.327 90.0235L155.512 88.1459C158.787 86.4203 161.295 80.9231 161.295 80.9231L167.77 67.5538L169.999 69.9408C169.999 69.9408 170.836 70.7626 172.092 71.9951Z" fill="#264653"/>
<path d="M172.092 71.7486C169.413 73.9056 167.166 75.7257 166.727 76.1078C165.527 77.1514 163.238 83.3019 161.763 86.4409C160.587 88.9676 156.767 89.6168 155.327 89.777L155.512 87.8994C158.787 86.1738 161.295 80.6765 161.295 80.6765L167.77 67.3073L169.999 69.6861C169.999 69.6861 170.836 70.4996 172.092 71.7486Z" fill="#DCE7FF"/>
<path d="M166.936 61.2799C166.938 63.7463 166.303 66.1549 165.115 68.1864C163.713 70.5884 161.626 72.3188 159.233 73.0636C156.84 73.8084 154.3 73.5182 152.073 72.2458C149.847 70.9733 148.081 68.8029 147.097 66.1283C146.112 63.4536 145.975 60.4521 146.709 57.6682C147.443 54.8843 149 52.5025 151.097 50.955C153.195 49.4075 155.693 48.7968 158.141 49.2337C160.588 49.6706 162.821 51.1262 164.434 53.3364C166.048 55.5466 166.936 58.3649 166.936 61.2799V61.2799Z" fill="#FFB0B1"/>
<path opacity="0.1" d="M184.992 102.263C183.576 101.237 182.422 99.7769 181.654 98.0394C181.071 96.6835 180.684 95.1182 179.69 94.1568C178.793 93.294 177.597 93.0844 176.48 92.6982C172.811 91.4205 169.734 87.4762 169.619 82.9732C169.563 80.8532 170.125 78.7373 169.87 76.6378C169.725 75.4496 169.324 74.325 168.705 73.3715C168.397 72.9155 168.06 72.4883 167.697 72.0937C167.208 71.5514 166.696 71.0255 166.249 70.4503C165.968 70.0942 165.722 69.7013 165.516 69.2794C165.351 68.9341 165.216 68.5691 165.115 68.1906C164.418 65.6761 165.053 62.6933 164.285 60.1501L164.243 60.0104C163.954 59.1065 163.364 58.2027 162.544 58.1328C161.725 58.063 161.023 58.8641 160.242 59.2216C158.606 59.9693 156.841 58.6957 155.477 57.3974C154.113 56.0991 152.575 54.6159 150.841 54.9035C149.693 55.0966 148.786 56.0169 147.729 56.4935C147.491 56.6023 147.244 56.6862 146.993 56.7441C147.888 54.1167 149.531 51.9383 151.641 50.583C153.751 49.2277 156.196 48.7802 158.556 49.3174C160.916 49.8546 163.043 51.3429 164.572 53.5267C166.102 55.7105 166.937 58.4533 166.936 61.2841C166.937 62.1389 166.861 62.9914 166.71 63.8273C166.727 63.8848 166.744 63.9382 166.765 63.9957C167.17 65.2283 167.627 66.4937 168.028 67.5866L169.999 69.6902C169.999 69.6902 170.836 70.5119 172.092 71.7445C174.823 74.4562 179.543 79.2303 181.978 82.1515C184.12 84.7317 184.79 94.732 184.992 102.263Z" fill="#264653"/>
<path d="M147.607 48.9871C148.106 47.7915 148.354 46.4521 148.95 45.3182C149.826 43.6747 151.354 42.6229 152.924 41.9861C157.022 40.3221 165.684 37.9063 168.273 41.9861C168.782 42.8078 169.204 43.7199 169.909 44.2869C170.446 44.7183 171.095 44.9032 171.684 45.2278C173.334 46.1399 174.388 48.1284 174.949 50.1581C175.511 52.1877 175.678 54.3652 176.09 56.4565C176.617 59.1394 177.541 61.6826 178.462 64.2094C179.547 67.1922 180.698 70.2859 182.791 72.3936C185.648 75.2696 186.28 79.3412 188.931 82.4966C192.07 86.2436 191.969 92.427 190.351 97.3368C190.138 97.9818 189.897 98.6556 189.981 99.3418C190.064 100.028 190.497 100.652 190.905 101.199L192.621 103.479C188.561 104.634 183.967 102.136 182.076 97.7517C181.494 96.3959 181.106 94.8346 180.109 93.8691C179.216 93.0063 178.016 92.8009 176.903 92.4147C173.233 91.1328 170.156 87.1845 170.041 82.6815C169.985 80.5656 170.547 78.4497 170.292 76.3543C170.151 75.1581 169.748 74.0256 169.124 73.0674C168.164 71.5925 166.717 70.6023 165.935 68.9589C164.613 66.2102 165.618 62.6399 164.666 59.6899C164.373 58.786 163.786 57.8822 162.967 57.8123C162.147 57.7425 161.446 58.5437 160.661 58.9011C159.028 59.6489 157.263 58.3793 155.899 57.0769C154.535 55.7745 152.997 54.2954 151.26 54.5871C150.112 54.7761 149.208 55.6964 148.152 56.1771C147.37 56.5304 145.786 56.8468 145.103 56.0703C143.658 54.5049 147.004 50.4498 147.607 48.9871Z" fill="#591D4B"/>
<path opacity="0.1" d="M183.045 96.396C182.459 95.0402 182.076 93.4789 181.078 92.5175C180.185 91.6547 178.985 91.4452 177.869 91.059C174.202 89.7812 171.126 85.8329 171.007 81.3299C170.951 79.214 171.513 77.094 171.262 74.9986C171.115 73.8101 170.713 72.6855 170.093 71.7323C169.13 70.2573 167.683 69.2671 166.905 67.6237C165.583 64.8792 166.587 61.3088 165.631 58.3548C165.342 57.455 164.752 56.5511 163.936 56.4772C163.12 56.4032 162.412 57.2126 161.63 57.57C159.998 58.3178 158.229 57.0441 156.869 55.7458C155.508 54.4475 153.963 52.9643 152.229 53.2519C151.081 53.445 150.174 54.3654 149.121 54.842C148.339 55.1953 146.752 55.5158 146.068 54.7392C144.631 53.0958 147.977 49.0489 148.577 47.5944C149.075 46.3947 149.323 45.0594 149.923 43.9255C149.955 43.8639 149.989 43.8022 150.024 43.7406C149.576 44.1785 149.188 44.6971 148.877 45.2772C148.28 46.4112 148.032 47.7423 147.534 48.9462C146.93 50.4006 143.585 54.4599 145.025 56.091C145.723 56.8716 147.293 56.5511 148.074 56.1978C149.121 55.7171 150.035 54.7968 151.182 54.6078C152.927 54.3161 154.462 55.7992 155.822 57.0976C157.182 58.3959 158.962 59.6695 160.587 58.9218C161.369 58.5643 162.052 57.759 162.889 57.833C163.727 57.9069 164.285 58.8067 164.588 59.7106C165.541 62.6606 164.536 66.2309 165.858 68.9795C166.639 70.5942 168.087 71.6049 169.046 73.0881C169.671 74.0463 170.073 75.1788 170.215 76.375C170.47 78.4703 169.908 80.5862 169.964 82.7022C170.079 87.2216 173.156 91.1535 176.826 92.4354C177.931 92.8216 179.138 93.027 180.031 93.8898C181.033 94.8553 181.427 96.4166 181.999 97.7724C183.89 102.156 188.484 104.654 192.544 103.5L191.735 102.423C188.215 102.485 184.654 100.127 183.045 96.396Z" fill="#264653"/>
<path opacity="0.1" d="M158.996 77.6443C158.539 78.466 157.231 82.6732 156.139 86.3463C155.117 85.8779 154.189 82.891 154.189 82.891L159.638 73.7617C160.196 74.6656 159.83 76.1652 158.996 77.6443Z" fill="#264653"/>
<path d="M159.206 77.398C158.749 78.2197 157.441 82.4268 156.349 86.0999C155.327 85.6356 154.399 82.6446 154.399 82.6446L159.848 73.5195C160.406 74.4192 160.04 75.923 159.206 77.398Z" fill="#DCE7FF"/>
<path d="M127.524 119.371L124.503 108.151C124.468 108.019 124.454 107.881 124.464 107.743C124.474 107.606 124.507 107.472 124.56 107.349C124.614 107.227 124.688 107.118 124.778 107.029C124.867 106.94 124.971 106.873 125.082 106.832V106.832C125.307 106.749 125.551 106.774 125.76 106.902C125.969 107.03 126.127 107.25 126.199 107.514L129.22 118.722L128.92 121.068L127.524 119.371Z" fill="#BE8B87"/>
<path opacity="0.1" d="M124.79 107.165C125.015 107.081 125.26 107.105 125.469 107.233C125.679 107.361 125.838 107.582 125.91 107.847L128.931 119.055L128.704 120.813L128.924 121.084L129.224 118.738L126.185 107.53C126.113 107.266 125.955 107.046 125.746 106.919C125.537 106.791 125.294 106.766 125.069 106.848V106.848C124.88 106.92 124.716 107.065 124.605 107.259C124.664 107.222 124.726 107.19 124.79 107.165V107.165Z" fill="white"/>
<path d="M127.524 119.371L129.22 118.738L128.972 120.661L128.92 121.084L128.424 120.476L127.524 119.371Z" fill="#EFC8C4"/>
<path d="M128.424 120.476C128.454 120.432 128.491 120.396 128.532 120.369C128.557 120.351 128.585 120.341 128.614 120.341C128.643 120.341 128.672 120.351 128.696 120.369C128.72 120.403 128.74 120.441 128.756 120.48C128.779 120.526 128.81 120.564 128.848 120.594C128.885 120.623 128.928 120.642 128.972 120.649L128.92 121.06L128.424 120.476Z" fill="#727A9C"/>
<path d="M124.486 112.136C124.486 112.136 130.545 112.095 129.118 115.131C127.692 118.167 125.463 118.533 125.463 118.533L124.486 112.136Z" fill="#FFB0B1"/>
<path opacity="0.1" d="M152.245 273.445C172.936 273.445 189.709 271.073 189.709 268.147C189.709 265.221 172.936 262.849 152.245 262.849C131.554 262.849 114.781 265.221 114.781 268.147C114.781 271.073 131.554 273.445 152.245 273.445Z" fill="#2A9D8F"/>
</g>
<defs>
<filter id="filter0_d" x="107" y="39" width="90.4899" height="242.445" filterUnits="userSpaceOnUse" color-interpolation-filters="sRGB">
<feFlood flood-opacity="0" result="BackgroundImageFix"/>
<feColorMatrix in="SourceAlpha" type="matrix" values="0 0 0 0 0 0 0 0 0 0 0 0 0 0 0 0 0 0 127 0" result="hardAlpha"/>
<feOffset dy="4"/>
<feGaussianBlur stdDeviation="2"/>
<feComposite in2="hardAlpha" operator="out"/>
<feColorMatrix type="matrix" values="0 0 0 0 0 0 0 0 0 0 0 0 0 0 0 0 0 0 0.25 0"/>
<feBlend mode="normal" in2="BackgroundImageFix" result="effect1_dropShadow"/>
<feBlend mode="normal" in="SourceGraphic" in2="effect1_dropShadow" result="shape"/>
</filter>
<linearGradient id="paint0_linear" x1="77706.7" y1="190708" x2="77706.7" y2="60935.3" gradientUnits="userSpaceOnUse">
<stop stop-color="#808080" stop-opacity="0.25"/>
<stop offset="0.54" stop-color="#808080" stop-opacity="0.12"/>
<stop offset="1" stop-color="#808080" stop-opacity="0.1"/>
</linearGradient>
</defs>
</svg>
